<svg width="107" height="85" viewBox="0 0 107 85" fill="none" xmlns="http://www.w3.org/2000/svg">
<path d="M1.4 84V70H4.66L10.46 79.52H8.74L14.38 70H17.64L17.68 84H14.04L14 75.54H14.62L10.4 82.62H8.64L4.3 75.54H5.06V84H1.4ZM24.122 75.42H30.622V78.38H24.122V75.42ZM24.402 80.94H31.722V84H20.482V70H31.462V73.06H24.402V80.94ZM33.9195 84V70H37.1795L42.9795 79.52H41.2595L46.8995 70H50.1595L50.1995 84H46.5595L46.5195 75.54H47.1395L42.9195 82.62H41.1595L36.8195 75.54H37.5795V84H33.9195ZM56.6416 75.42H63.1416V78.38H56.6416V75.42ZM56.9216 80.94H64.2416V84H53.0016V70H63.9816V73.06H56.9216V80.94ZM73.3191 72.98C74.1591 72.98 74.9191 73.1533 75.5991 73.5C76.2791 73.8333 76.8124 74.3533 77.1991 75.06C77.5991 75.7667 77.7991 76.68 77.7991 77.8V84H73.9991V78.42C73.9991 77.6467 73.8391 77.0867 73.5191 76.74C73.2124 76.38 72.7791 76.2 72.2191 76.2C71.8191 76.2 71.4524 76.2933 71.1191 76.48C70.7857 76.6533 70.5257 76.9267 70.3391 77.3C70.1524 77.6733 70.0591 78.16 70.0591 78.76V84H66.2591V73.16H69.8791V76.24L69.1791 75.34C69.5924 74.5533 70.1591 73.9667 70.8791 73.58C71.5991 73.18 72.4124 72.98 73.3191 72.98ZM80.1848 84V73.16H83.9848V84H80.1848ZM82.0848 71.96C81.3915 71.96 80.8315 71.7667 80.4048 71.38C79.9782 70.9933 79.7648 70.5133 79.7648 69.94C79.7648 69.3667 79.9782 68.8867 80.4048 68.5C80.8315 68.1133 81.3915 67.92 82.0848 67.92C82.7782 67.92 83.3382 68.1067 83.7648 68.48C84.1915 68.84 84.4048 69.3067 84.4048 69.88C84.4048 70.48 84.1915 70.98 83.7648 71.38C83.3515 71.7667 82.7915 71.96 82.0848 71.96ZM93.0744 84V81.98L92.8144 81.48V77.76C92.8144 77.16 92.6277 76.7 92.2544 76.38C91.8944 76.0467 91.3144 75.88 90.5144 75.88C89.9944 75.88 89.4677 75.9667 88.9344 76.14C88.401 76.3 87.9477 76.5267 87.5744 76.82L86.2944 74.24C86.9077 73.84 87.641 73.5333 88.4944 73.32C89.361 73.0933 90.221 72.98 91.0744 72.98C92.8344 72.98 94.1944 73.3867 95.1544 74.2C96.1277 75 96.6144 76.26 96.6144 77.98V84H93.0744ZM89.8744 84.18C89.0077 84.18 88.2744 84.0333 87.6744 83.74C87.0744 83.4467 86.6144 83.0467 86.2944 82.54C85.9877 82.0333 85.8344 81.4667 85.8344 80.84C85.8344 80.1733 86.001 79.6 86.3344 79.12C86.681 78.6267 87.2077 78.2533 87.9144 78C88.621 77.7333 89.5344 77.6 90.6544 77.6H93.2144V79.58H91.1744C90.561 79.58 90.1277 79.68 89.8744 79.88C89.6344 80.08 89.5144 80.3467 89.5144 80.68C89.5144 81.0133 89.641 81.28 89.8944 81.48C90.1477 81.68 90.4944 81.78 90.9344 81.78C91.3477 81.78 91.721 81.68 92.0544 81.48C92.401 81.2667 92.6544 80.9467 92.8144 80.52L93.3344 81.92C93.1344 82.6667 92.741 83.2333 92.1544 83.62C91.581 83.9933 90.821 84.18 89.8744 84.18ZM99.013 84V69.16H102.813V84H99.013Z" fill="white"/>
<path d="M75.0181 9.05504C74.0653 3.90681 69.5542 0 64.1112 0C58.6626 0 54.1501 3.91511 53.2029 9.07025C30.6043 11.2043 12.9308 30.1863 13.0002 53.2785C13.0155 58.1111 17.0391 62 21.8891 62H64.1112C65.339 62 66.3334 61.0091 66.3334 59.7857C66.3334 57.3403 64.3431 55.3571 61.889 55.3571H50.8487L55.8209 48.6686C59.1737 43.6546 57.2584 36.4513 51.139 33.9159C47.8209 32.5417 43.9793 33.2722 41.1057 35.4217L36.5557 38.8247C35.5751 39.5596 34.1821 39.3661 33.4432 38.383C32.7071 37.4032 32.9043 36.0151 33.8863 35.2816L38.7168 31.671C43.8335 27.843 50.9779 27.8485 56.0959 31.671C57.6056 32.7989 62.4667 37.0765 61.7626 44.5706L78.225 62H90.7778C92.0056 62 93 61.0091 93 59.7857C93 57.3403 91.0097 55.3571 88.5556 55.3571H81.107L67.4237 40.8701L88.8736 28.8784C90.1253 28.1789 91.1674 27.1598 91.8926 25.9259C92.6178 24.6919 93.0001 23.2878 93 21.8578C93 18.8962 91.3722 16.1906 88.7667 14.7679C83.1333 11.6928 75.0181 9.05504 75.0181 9.05504ZM64.1112 14.3928C62.2695 14.3928 60.7779 12.9051 60.7779 11.0714C60.7779 9.23632 62.2695 7.74998 64.1112 7.74998C65.9515 7.74998 67.4445 9.23632 67.4445 11.0714C67.4445 12.9051 65.9515 14.3928 64.1112 14.3928Z" fill="white"/>
</svg>
